<?xml version="1.0" standalone="no"?><!DOCTYPE svg PUBLIC "-//W3C//DTD SVG 1.1//EN" "http://www.w3.org/Graphics/SVG/1.1/DTD/svg11.dtd"><svg t="1639637739358" class="icon" viewBox="0 0 1024 1024" version="1.1" xmlns="http://www.w3.org/2000/svg" p-id="6518" xmlns:xlink="http://www.w3.org/1999/xlink" width="200" height="200"><defs><style type="text/css"></style></defs><path d="M511.682775 957.419606c-242.98201 0-440.664302-197.682291-440.664302-440.666348 0-149.932778 75.283614-288.223401 201.382567-369.930307 14.09195-9.123798 32.908504-5.102205 42.029232 8.977465 9.125845 14.084787 5.109368 32.903388-8.977465 42.029232-108.736517 70.456678-173.653015 189.682084-173.653015 318.92361 0 209.467709 170.413228 379.88503 379.882983 379.88503s379.882983-170.418344 379.882983-379.88503c0-129.241526-64.916499-248.466931-173.653015-318.92361-14.086833-9.125845-18.10331-27.944446-8.977465-42.029232 9.125845-14.089903 27.951609-18.101263 42.029232-8.977465 126.09793 81.706907 201.382567 219.998553 201.382567 369.930307C952.347077 759.737314 754.664785 957.419606 511.682775 957.419606z" p-id="6519" fill="#acc270"></path><path d="M402.783553 147.001005c-16.783245 0-30.390147-13.607926-30.390147-30.390147L372.393405 92.973508c0-16.783245 13.607926-30.390147 30.390147-30.390147 16.783245 0 30.390147 13.607926 30.390147 30.390147l0 23.636327C433.1737 133.393079 419.566798 147.001005 402.783553 147.001005z" p-id="6520" fill="#acc270"></path><path d="M620.583021 147.001005c-16.783245 0-30.390147-13.607926-30.390147-30.390147L590.192873 92.973508c0-16.783245 13.607926-30.390147 30.390147-30.390147 16.783245 0 30.390147 13.607926 30.390147 30.390147l0 23.636327C650.973168 133.393079 637.366266 147.001005 620.583021 147.001005z" p-id="6521" fill="#acc270"></path><path d="M511.682775 276.502451c-41.960671 0-79.498612-25.038256-95.633081-63.788815-6.449899-15.494902 0.880043-33.287127 16.372899-39.739073 15.486716-6.455015 33.284057 0.87595 39.739073 16.372899 6.67298 16.020882 22.184255 26.373671 39.522132 26.373671 17.336854 0 32.849152-10.352789 39.522132-26.373671 6.455015-15.502066 24.257473-22.824845 39.739073-16.372899 15.491833 6.452969 22.822798 24.245194 16.372899 39.739073C591.181387 251.463172 553.643446 276.502451 511.682775 276.502451z" p-id="6522" fill="#acc270"></path><path d="M507.463684 498.182296c-7.776104 0-15.556301-2.967588-21.487384-8.900717L367.787504 371.09483c-11.871375-11.869329-11.871375-31.110555-0.005117-42.97886 11.871375-11.866259 31.117718-11.866259 42.97886 0L528.951067 446.301695c11.871375 11.869329 11.871375 31.110555 0.005117 42.97886C523.019984 495.214708 515.239787 498.182296 507.463684 498.182296z" p-id="6523" fill="#acc270"></path><path d="M515.901867 498.182296c-7.780197 0-15.556301-2.965541-21.4925-8.900717-11.866259-11.869329-11.866259-31.110555 0.005117-42.97886l118.188796-118.186749c11.861142-11.871375 31.107485-11.866259 42.97886 0 11.866259 11.869329 11.866259 31.110555-0.005117 42.97886L537.38925 489.281579C531.458167 495.214708 523.67797 498.182296 515.901867 498.182296z" p-id="6524" fill="#acc270"></path><path d="M677.985382 508.312004 345.380168 508.312004c-16.783245 0-30.390147-13.607926-30.390147-30.390147 0-16.783245 13.607926-30.390147 30.390147-30.390147l332.605214 0c16.783245 0 30.390147 13.607926 30.390147 30.390147C708.376553 494.705102 694.768627 508.312004 677.985382 508.312004z" p-id="6525" fill="#acc270"></path><path d="M677.985382 651.824559 345.380168 651.824559c-16.783245 0-30.390147-13.607926-30.390147-30.390147s13.607926-30.390147 30.390147-30.390147l332.605214 0c16.783245 0 30.390147 13.607926 30.390147 30.390147S694.768627 651.824559 677.985382 651.824559z" p-id="6526" fill="#acc270"></path><path d="M511.682775 795.33609c-16.783245 0-30.390147-13.607926-30.390147-30.390147L481.292628 477.921857c0-16.783245 13.607926-30.390147 30.390147-30.390147s30.390147 13.607926 30.390147 30.390147l0 287.024086C542.073946 781.729188 528.46602 795.33609 511.682775 795.33609z" p-id="6527" fill="#acc270"></path></svg>